{"title":"Descendants.2015.WEBRip.XViD.AC3-Sorrow","uid":12163763,"size":1573136700,"categoryP":"video","categoryS":"movies","magnet":"?xt=urn:btih:a2dded9b3d943a177305d536edaad5388ae102f2&amp;dn=Descendants.2015.WEBRip.XViD.AC3-Sorrow&amp;tr=udp%3A%2F%2Ftracker.openbittorrent.com%3A80&amp;tr=udp%3A%2F%2Fopen.demonii.com%3A1337&amp;tr=udp%3A%2F%2Ftracker.coppersurfer.tk%3A6969&amp;tr=udp%3A%2F%2Fexodus.desync.com%3A6969","seeders":1,"leechers":0,"uploader":null,"files":2,"time":1437983690,"description":"Descendants 2015 WEBRip XViD AC3-Sorrow\n\nGeneral\nComplete name                            : Descendants.2015.WEBRip.XViD.AC3-Sorrow.avi\nFormat                                   : AVI\nFormat/Info                              : Audio Video Interleave\nFile size                                : 1.47 GiB\nDuration                                 : 1h 52mn\nOverall bit rate                         : 1 873 Kbps\nWriting application                      : Lavf55.19.104\nWriting library                          : \n\nVideo\nID                                       : 0\nFormat                                   : MPEG-4 Visual\nFormat profile                           : Simple@L3\nFormat settings, BVOP                    : No\nFormat settings, QPel                    : No\nFormat settings, GMC                     : No warppoints\nFormat settings, Matrix                  : Default (H.263)\nCodec ID                                 : XVID\nCodec ID/Hint                            : XviD\nDuration                                 : 1h 52mn\nBit rate                                 : 1 414 Kbps\nWidth                                    : 720 pixels\nHeight                                   : 400 pixels\nDisplay aspect ratio                     : 16:9\nFrame rate                               : 23.976 fps\nColor space                              : YUV\nChroma subsampling                       : 4:2:0\nBit depth                                : 8 bits\nScan type                                : Progressive\nCompression mode                         : Lossy\nBits/(Pixel*Frame)                       : 0.205\nStream size                              : 1.11 GiB (76%)\nWriting library                          : XviD 64\n\nAudio\nID                                       : 1\nFormat                                   : AC-3\nFormat/Info                              : Audio Coding 3\nMode extension                           : CM (complete main)\nFormat settings, Endianness              : Big\nCodec ID                                 : 2000\nDuration                                 : 1h 52mn\nBit rate mode                            : Constant\nBit rate                                 : 448 Kbps\nChannel count                            : 2 channels\nChannel positions                        : Front: L R\nSampling rate                            : 48.0 KHz\nBit depth                                : 16 bits\nCompression mode                         : Lossy\nStream size                              : 359 MiB (24%)\nAlignment                                : Aligned on interleaves\nInterleave, duration                     : 32 ms (0.77 video frame)\nInterleave, preload duration             : 512 ms\n\n\n\nAction:Adventure:Comedy \n\nA present-day idyllic kingdom where the benevolent teenage son of King Adam and Queen Belle offers a chance of redemption for the trouble making offspring of Disney's classic villains: ... See full summary Â» \n\n\nDirector: Kenny Ortega \n\nWriters: Josann McGibbon (original teleplay), Josann McGibbon, 2 more credits Â» \n\nStars: Dove Cameron, Cameron Boyce, Booboo Stewart \n &lt;a href=&quot;\nhttp://www.imdb.com/title/tt3440298/&quot; rel=&quot;nofollow&quot; target=&quot;_NEW&quot;&gt;\nhttp://www.imdb.com/title/tt3440298/&lt;/a&gt;","torrent":{"xt":"urn:btih:a2dded9b3d943a177305d536edaad5388ae102f2","amp;dn":"Descendants.2015.WEBRip.XViD.AC3-Sorrow","amp;tr":["udp%3A%2F%2Ftracker.openbittorrent.com%3A80","udp%3A%2F%2Fopen.demonii.com%3A1337","udp%3A%2F%2Ftracker.coppersurfer.tk%3A6969","udp%3A%2F%2Fexodus.desync.com%3A6969"],"infoHash":"a2dded9b3d943a177305d536edaad5388ae102f2","infoHashBuffer":{"type":"Buffer","data":[162,221,237,155,61,148,58,23,115,5,213,54,237,170,213,56,138,225,2,242]},"announce":[],"urlList":[]}}